<svg xmlns="http://www.w3.org/2000/svg" xmlns:xlink="http://www.w3.org/1999/xlink" width="100" height="100" viewBox="0 0 100 100"><rect width="100%" height="100%" fill="#FFFFFF"></rect><g transform="translate(50 50) scale(0.69 0.69) rotate(0) translate(-50 -50)" style="fill:#000000"><svg fill="#000000" xmlns="http://www.w3.org/2000/svg" xmlns:xlink="http://www.w3.org/1999/xlink" version="1.1" x="0px" y="0px" viewBox="0 0 100 100" enable-background="new 0 0 100 100" xml:space="preserve"><g><path fill="#000000" d="M42.1,43.6c-2.5-2.5-5.4-5.9-9.6-5.5c-4.1,0.5-8.3,1.4-10.5,4.4c-1.3,1.7-1.7,3.9-1.4,6.5   c0.5,4.6,3.3,9.7,6.5,12.6c2.2,1.9,4.6,2.8,7.1,2.5l0,0h0.1c2.4-0.3,4.7-1.6,6.6-4c2.8-3.5,4.9-9.1,4.7-13.7   C45.7,43.7,43.6,45,42.1,43.6z M34.2,61.7L34.2,61.7L34.2,61.7L34.2,61.7z"></path><path fill="#000000" d="M65.4,64.1L65.4,64.1C65.5,64.1,65.5,64.1,65.4,64.1c2.5,0.3,4.9-0.6,7.1-2.5c3.3-2.8,6-7.9,6.5-12.5   c0.4-2.6-0.1-4.8-1.3-6.5c-2.2-3-6.4-3.9-10.5-4.4c-4.1-0.4-7,3-9.5,5.4c-1.5,1.4-3.6,0.1-3.6,2.7C54,51,56,56.6,58.8,60.1   C60.7,62.4,63,63.8,65.4,64.1z M65.7,61.8L65.7,61.8L65.7,61.8L65.7,61.8z"></path><path fill="#000000" d="M46.8,57.6c-1,0-2.7,0.6-2.6,3.6c0,1.5,0.5,3.5,1.4,4.5c0.4,0.4,0.8,0.6,1.3,0.6l0,0c0.4,0,0.9-0.2,1.3-0.7   c0.9-1.1,1.3-3.1,1.3-4.6C49.5,58.1,47.8,57.6,46.8,57.6z"></path><path fill="#000000" d="M52.6,66.4C52.7,66.4,52.7,66.4,52.6,66.4c0.5,0,0.9-0.2,1.3-0.6c0.9-1,1.4-3.1,1.4-4.5   c0.1-3.1-1.6-3.6-2.6-3.6S50,58.2,50,61.2c0,1.5,0.4,3.5,1.3,4.6C51.8,66.2,52.2,66.4,52.6,66.4z"></path><path fill="#000000" d="M98.2,13c-0.6-0.9-1.5-1.5-2.4-1.7c-0.6-0.2-1.2-0.2-1.8,0c-5.2,1.2-8.8,4.8-12.2,8.3   c-1.4,1.5-2.7,2.9-4.1,4.1c-7.3-5.8-17.4-9.6-28.3-9.8c0,0,0,0-0.1,0c0,0,0,0-0.1,0c-11.8,0.4-21.1,4.6-27.5,9.7   c-1.3-1.2-2.6-2.6-3.9-4c-3.4-3.5-7-7.1-12.2-8.3c-0.6-0.1-1.2-0.1-1.8,0c-1,0.3-1.9,0.9-2.4,1.7c-0.9,1.4-0.7,3,0.5,3.9   c3.5,2.7,5.8,7.3,8.2,12.2c0.8,1.6,1.6,3.3,2.4,4.9c-0.6,1.1-1.2,2.2-1.6,3.3C8.4,43.5,8.9,49,11.7,53c1.2,2.4,0.9,5.2,0.7,7.9   c-0.4,4.4-0.7,9.7,6.1,11.1c0.4,0.1,0.8,0.1,1.7,0.2c4.5,0.3,5.7,1,6,1.3c0,0.1,0.1,0.2,0.1,0.3c0.2,0.5,0.6,1.5,1.1,2.7   c3.7,9.4,5.6,13.9,8.2,13.7c2.3-0.3,3.7-1,4.6-2c1,0.8,2.5,1.3,4.8,1.3c2.3-0.1,3.8-0.7,4.7-1.6c1,0.9,2.4,1.5,4.7,1.6   s3.8-0.4,4.8-1.3c0.9,1,2.3,1.7,4.6,2l0,0c2.6,0.2,4.5-4.3,8.2-14c0.4-1.1,0.8-2.1,1-2.5c0-0.1,0.1-0.1,0.1-0.2   c0.9-0.9,5.4-1.6,7.4-1.5c0,0,0.1,0,0.1,0.1c0.2,0,0.3,0,0.5,0c2.7-0.2,4.5-1,5.6-2.6c1.6-2.3,1.1-5.4,0.6-8.5   c-0.5-2.9-1-5.9,0-8.3c2.8-4.1,3.2-9.8,0.6-16c-0.3-0.8-0.7-1.5-1.1-2.3c0.9-1.8,1.8-3.6,2.6-5.3c2.4-4.9,4.7-9.5,8.2-12.2   C98.9,16,99.1,14.4,98.2,13z M4.3,14.4c7.8,1.8,12.2,10.6,18.5,14.2C21,31,19.2,33.5,17,35.7C12.8,28.1,10.3,19.1,4.3,14.4z    M83.9,61.6c0.4,2.3,0.8,4.5,0.1,5.5c-0.6,0.8-2.1,1.1-3.2,1.2l0,0c-2-0.1-9.6,0.2-10.8,3.8c-0.2,0.6-0.6,1.5-1,2.6   c-2.6,7-4.2,11-5.1,11.7c-1.3-0.2-2.8-0.6-2.9-1.7c-0.3-3.4-0.6-6.7-1-10.1c-0.7,3.3-1.4,6.5-2.1,9.8c-0.2,1-1.3,1.4-3.3,1.3   s-3.1-0.6-3.2-1.5c-0.5-3.3-1-6.6-1.6-10c-0.5,3.3-1.1,6.6-1.5,10c-0.1,1-1.2,1.5-3.2,1.5c-2,0.1-3.1-0.3-3.3-1.3   c-0.7-3.3-1.4-6.5-2.1-9.8c-0.3,3.4-0.7,6.7-1,10.1c-0.1,1.1-1.6,1.6-2.9,1.7c-1.3-1.1-4.1-8.9-5.1-11.4c-0.5-1.3-0.9-2.3-1.1-2.9   c-0.9-2.7-4.7-3.4-8.8-3.7c-0.5,0-1.1-0.1-1.3-0.1c-4-0.8-3.8-2.6-3.4-7.1c0.3-3,0.7-6.8-1-10.2c0-0.1-0.1-0.2-0.1-0.2   c-2.1-3-2.3-7.3-0.3-12.2c0.1-0.2,0.2-0.4,0.3-0.6c0.5,0.5,1.1,0.8,1.8,0.8c0.3,0,0.6,0,0.9-0.1c0.7-0.1,1.3-0.5,1.8-1   c2.3-2.4,4.3-5,6.1-7.4c0.6-0.7,0.8-1.6,0.7-2.5c-0.1-0.8-0.5-1.5-1.2-1.9c5.8-4.3,14.1-7.8,24.5-8.2c10.8,0.2,19.3,3.9,25.2,8.3   c-0.5,0.5-0.9,1.1-1,1.8c-0.1,0.9,0.1,1.8,0.7,2.5c1.8,2.3,3.8,5,6.1,7.4c0.5,0.5,1.2,0.9,1.8,1c0.3,0.1,0.6,0.1,0.9,0.1   c0.6,0,1.1-0.2,1.5-0.5c2,4.8,1.8,9.2-0.2,12.2c0,0.1-0.1,0.2-0.1,0.3C82.5,54.4,83.3,58.4,83.9,61.6z M82.5,35.7   c-2.1-2.2-4-4.7-5.8-7.1C83,25,87.4,16.2,95.2,14.4C89.3,19.1,86.8,28.1,82.5,35.7z"></path></g></svg></g></svg>